<svg xmlns="http://www.w3.org/2000/svg" viewBox="0 0 478.83 560.74"><defs><style>.cls-1{fill:#9dc1d4;}.cls-2{fill:#fff;}.cls-3{fill:#fdf5f1;}.cls-4{fill:#f8e4c7;}.cls-5{fill:#daf06d;}.cls-6{fill:#fcf6f5;}</style></defs><title>资源 2</title><g id="图层_2" data-name="图层 2"><g id="图层_1-2" data-name="图层 1"><path class="cls-1" d="M6.58,415.63S-9,431.13,12.46,440.88s36.75,4,38.63,1.13,5.38-6.5,4-13.37c-.75-3,11.13-7.37,12.75-8.37s9.25-7.25,11.75-5.37,14,14.5,54,22.75,54.88,7.89,56.13,8.69-1.62,1.93.88,5.68,3.38,4,3.63,5.5-9,12.75-6.12,21,11.63,18.38,20,22.75c1,3.5-10.25,18.12,2,32.25s26.75,19.38,43.75,18.63,16.13-.25,25.75,4.38,50.88,9.13,61-7.75,1-24-14.37-27.25-93.87-59.87-93.87-59.87l9.25-13.12s12.13,3,43.75-1.25,106-18.25,108-38.75-30.5-25.5-48.5-25.62-221.25,0-221.25,0-30,3.88-31.88,4.25S6.58,415.63,6.58,415.63Z"/><path class="cls-2" d="M257.58,60.51c4.5-15,11-26.25,21.25-39.5s20-21.25,23.75-21,9.25,7,19.75,28.75,14.75,41,13.75,58.25-1.75,17.75-1.5,21.5,8.25,13,14,32.75,4.25,24,7.25,30.5,9.75,13.5,13.75,15,7,3.75,6.75,7.75-4.75,4.75-4.5,6.25,12,4.25,13.75,10.75-9.5,15.25-11.5,15.75c-2.5,1.25.25,2.25,1.5,5s1.75,10-5.5,14S340.58,260,338.33,261s-5.25,2-3.25,7.25,9.25,23.25,14.25,34,14.25,39,9.5,62.25-18,53.5-76,59.5c0,0-84.25,3.5-112.5-4s-59-21.25-62.5-67.25,23.5-70.75,19.5-93.5a22.43,22.43,0,0,1-11.5-3.5c-6.25-3.75-22.75-13-26.5-18.25s.5-9.75,0-13-11.25-3.44-10.25-12.09,12.25-5.66,11.75-8.66-7.5-5.75-6-12.5c.86-3.85,14.14-4.12,22.5-17.75,3.23-5.27,5-22.75,9.5-36.75,4.27-13.21,11.42-23.09,11.75-24.25,1.5-5.25-7.25-15.5,1.5-53.25s21.75-52,27.5-54c3-1.06,19.7,8.86,31.5,23.5,10.46,13,16.31,30.78,17.25,31.25s11.12-4.25,22.5-4.5C241.59,55.23,255.73,59.45,257.58,60.51Z"/><path class="cls-2" d="M317.58,486.26s27.25,13.25,15.75,39.5-48.75,18.25-56.25,10c-9.5,7-22,7.25-38.75-2.5s-16.5-22-15-30.5,2.75-7.25-7.75-14-7.5-27.25-3.75-33.5a7.13,7.13,0,0,0,.5-5.75c-1.07-3.1-3.89-6.66-3.58-10.33.62-7.32,6.67-13.92,6.67-13.92A5.07,5.07,0,0,0,217.5,421l41.83-9.75L247.08,424.8s-6.75,10.29-4,26.13,21.42,33.83,43.58,34.58S312.41,484.26,317.58,486.26Z"/><path class="cls-3" d="M159.75,8.17s16.11,5.37,29.17,24c13.67,19.5,13.31,22.74,14.83,28,.52,1.79-8.67,7-9,8.5s-1.33-17-14.33-35.33S159.75,8.17,159.75,8.17Z"/><path class="cls-3" d="M262.58,59.51c2,2,7.17,8.17,8.83-5.83s12-35.5,19.5-44.33-10.5,1.67-20.83,23.5S261,57.91,262.58,59.51Z"/><path class="cls-3" d="M127.41,258.67s-9-3-22-11S90.75,235,90.75,235s-1.92-6.83,1.83-1.75c1.9,2.58,7,5.53,14.5,9.42C127.75,253.34,130.41,253,130.41,253Z"/><path class="cls-3" d="M93.75,224.09s-7.5-2.5-10-5.42a8.24,8.24,0,0,1-2.08-6s.08-1.42,2.33,1.67,11.67,4.92,11.67,4.92S94.5,223.76,93.75,224.09Z"/><path class="cls-3" d="M87.75,194.34s5.17,7.75,6.5,8.25,4.08-4.42,3.17-5.75-9.17-3.33-9.17-3.33Z"/><path class="cls-3" d="M335.46,259.8s9-3,22-11,14.67-12.67,14.67-12.67,1.92-6.83-1.83-1.75c-1.9,2.58-7,5.53-14.5,9.42-20.67,10.67-23.33,10.33-23.33,10.33Z"/><path class="cls-3" d="M369.12,225.22s7.5-2.5,10-5.42a8.24,8.24,0,0,0,2.08-6s-.08-1.42-2.33,1.67-11.67,4.92-11.67,4.92S368.37,224.88,369.12,225.22Z"/><path class="cls-3" d="M367.72,202.83c1.33-.5,6.5-8.25,6.5-8.25l-.5-.83s-6.22,4.18-7.47,6.51S367.72,202.83,367.72,202.83Z"/><path class="cls-4" d="M19.58,370c11,0,13.75,5.88,16.25,8.5s44.5-.12,47.13-1.37,2-9.87,11.38-8.37,7.5,8.13,8.38,12,1.63,2.5,2.75,4.5,1.63,14.63-10.63,13.63-43.62,13.5-44.75,14-6.25,1.75-8.12,6.5S35.33,433,24.21,432.76s-19.88-8-20.5-15.87,4.75-9.37,4.38-12.75-9-8-8-14.5S8.83,370,19.58,370Z"/><ellipse class="cls-1" cx="451.73" cy="403.45" rx="26.54" ry="10.75"/><circle class="cls-5" cx="452.29" cy="377.34" r="26.54"/><path class="cls-2" d="M433.47,378.46A26.54,26.54,0,0,0,460,351.94a26.36,26.36,0,0,0-2.89-.7A26.53,26.53,0,0,1,426,373.94a26.75,26.75,0,0,0-.22,3.37A26.5,26.5,0,0,0,433.47,378.46Z"/><path class="cls-2" d="M470.79,378.46a26.54,26.54,0,0,0-26.43,24.21,26.37,26.37,0,0,0,3.17.77A26.54,26.54,0,0,1,478.22,383a26.5,26.5,0,0,0,.5-3.29A26.48,26.48,0,0,0,470.79,378.46Z"/><path class="cls-6" d="M334.33,403.26c-8.5,7-11.25,13.5-42,17.25s-39.24,2.65-38.37,1.69,2.87-7.57,13.37-9,29-1.93,37.25-4.31,34.75-15.5,33.5-11.19S334.33,403.26,334.33,403.26Z"/><path class="cls-6" d="M223.08,411.26s-3.44,8-14.72,9.5S171.08,418,163.83,416s-25.5-10.75-30.75-16.5,4.75,2,30,4.25,40.5,6.19,50.25,6.22S223.08,411.26,223.08,411.26Z"/></g></g></svg>